<svg id="visual" viewBox="0 0 1920 1080" width="1920" height="1080" xmlns="http://www.w3.org/2000/svg" xmlns:xlink="http://www.w3.org/1999/xlink" version="1.1"><rect x="0" y="0" width="1920" height="1080" fill="#F7770F"></rect><defs><linearGradient id="grad1_0" x1="43.8%" y1="0%" x2="100%" y2="100%"><stop offset="14.444444444444446%" stop-color="#0066ff" stop-opacity="1"></stop><stop offset="85.55555555555554%" stop-color="#0066ff" stop-opacity="1"></stop></linearGradient></defs><defs><linearGradient id="grad1_1" x1="43.8%" y1="0%" x2="100%" y2="100%"><stop offset="14.444444444444446%" stop-color="#0066ff" stop-opacity="1"></stop><stop offset="85.55555555555554%" stop-color="#df2dc1" stop-opacity="1"></stop></linearGradient></defs><defs><linearGradient id="grad1_2" x1="43.8%" y1="0%" x2="100%" y2="100%"><stop offset="14.444444444444446%" stop-color="#ff2b69" stop-opacity="1"></stop><stop offset="85.55555555555554%" stop-color="#df2dc1" stop-opacity="1"></stop></linearGradient></defs><defs><linearGradient id="grad1_3" x1="43.8%" y1="0%" x2="100%" y2="100%"><stop offset="14.444444444444446%" stop-color="#ff2b69" stop-opacity="1"></stop><stop offset="85.55555555555554%" stop-color="#f7770f" stop-opacity="1"></stop></linearGradient></defs><defs><linearGradient id="grad2_0" x1="0%" y1="0%" x2="56.3%" y2="100%"><stop offset="14.444444444444446%" stop-color="#0066ff" stop-opacity="1"></stop><stop offset="85.55555555555554%" stop-color="#0066ff" stop-opacity="1"></stop></linearGradient></defs><defs><linearGradient id="grad2_1" x1="0%" y1="0%" x2="56.3%" y2="100%"><stop offset="14.444444444444446%" stop-color="#df2dc1" stop-opacity="1"></stop><stop offset="85.55555555555554%" stop-color="#0066ff" stop-opacity="1"></stop></linearGradient></defs><defs><linearGradient id="grad2_2" x1="0%" y1="0%" x2="56.3%" y2="100%"><stop offset="14.444444444444446%" stop-color="#df2dc1" stop-opacity="1"></stop><stop offset="85.55555555555554%" stop-color="#ff2b69" stop-opacity="1"></stop></linearGradient></defs><defs><linearGradient id="grad2_3" x1="0%" y1="0%" x2="56.3%" y2="100%"><stop offset="14.444444444444446%" stop-color="#f7770f" stop-opacity="1"></stop><stop offset="85.55555555555554%" stop-color="#ff2b69" stop-opacity="1"></stop></linearGradient></defs><g transform="translate(1920, 0)"><path d="M0 918C-52.1 809.8 -104.1 701.5 -183.5 684.8C-262.9 668.2 -369.5 743 -405 701.5C-440.5 659.9 -404.8 502 -436.3 436.3C-467.8 370.6 -566.6 397.1 -660.8 381.5C-755 365.9 -844.6 308.2 -886.7 237.6C-928.8 167 -923.4 83.5 -918 0L0 0Z" fill="#ff5440"></path><path d="M0 688.5C-39.1 607.3 -78.1 526.1 -137.6 513.6C-197.2 501.1 -277.1 557.3 -303.7 526.1C-330.4 495 -303.6 376.5 -327.2 327.2C-350.9 277.9 -424.9 297.8 -495.6 286.1C-566.2 274.4 -633.5 231.1 -665 178.2C-696.6 125.2 -692.6 62.6 -688.5 0L0 0Z" fill="#ff0e95"></path><path d="M0 459C-26 404.9 -52.1 350.8 -91.8 342.4C-131.4 334.1 -184.8 371.5 -202.5 350.7C-220.2 330 -202.4 251 -218.1 218.1C-233.9 185.3 -283.3 198.5 -330.4 190.8C-377.5 183 -422.3 154.1 -443.4 118.8C-464.4 83.5 -461.7 41.7 -459 0L0 0Z" fill="#a34ee6"></path><path d="M0 229.5C-13 202.4 -26 175.4 -45.9 171.2C-65.7 167 -92.4 185.8 -101.2 175.4C-110.1 165 -101.2 125.5 -109.1 109.1C-117 92.6 -141.6 99.3 -165.2 95.4C-188.7 91.5 -211.2 77 -221.7 59.4C-232.2 41.7 -230.9 20.9 -229.5 0L0 0Z" fill="#0066ff"></path></g><g transform="translate(0, 1080)"><path d="M0 -918C48.9 -785.8 97.9 -653.7 172.6 -644.3C247.4 -634.9 347.9 -748.2 449.5 -778.6C551.1 -808.9 653.6 -756.2 649.1 -649.1C644.7 -542 533.2 -380.5 517 -298.5C500.8 -216.5 579.9 -214 662.6 -177.5C745.3 -141.1 831.7 -70.5 918 0L0 0Z" fill="#ff5440"></path><path d="M0 -688.5C36.7 -589.4 73.4 -490.3 129.5 -483.2C185.5 -476.2 261 -561.2 337.1 -583.9C413.3 -606.7 490.2 -567.2 486.8 -486.8C483.5 -406.5 399.9 -285.4 387.8 -223.9C375.6 -162.4 434.9 -160.5 497 -133.2C559 -105.8 623.8 -52.9 688.5 0L0 0Z" fill="#ff0e95"></path><path d="M0 -459C24.5 -392.9 48.9 -326.8 86.3 -322.1C123.7 -317.4 174 -374.1 224.7 -389.3C275.5 -404.4 326.8 -378.1 324.6 -324.6C322.3 -271 266.6 -190.2 258.5 -149.3C250.4 -108.3 290 -107 331.3 -88.8C372.7 -70.5 415.8 -35.3 459 0L0 0Z" fill="#a34ee6"></path><path d="M0 -229.5C12.2 -196.5 24.5 -163.4 43.2 -161.1C61.8 -158.7 87 -187.1 112.4 -194.6C137.8 -202.2 163.4 -189.1 162.3 -162.3C161.2 -135.5 133.3 -95.1 129.3 -74.6C125.2 -54.1 145 -53.5 165.7 -44.4C186.3 -35.3 207.9 -17.6 229.5 0L0 0Z" fill="#0066ff"></path></g></svg>